# xmcd
#
# Track frame offsets: 
#        150
#        16938
#        38906
#        55553
#        69463
#        86931
#        101487
#        117370
#        140890
#        153283
#        169483
#
# Disc length: 2416 seconds
#
# Revision: 2
# Processed by: cddbd v1.5.2PL0 Copyright (c) Steve Scherf et al.
# Submitted via: ExactAudioCopy v1.3
#
DISCID=94096e0b
DTITLE=Clay Walker - Christmas
DYEAR=2002
DGENRE=Christmas
TTITLE0=Silent Night, Away In A Manger
TTITLE1=Mary Did You Know
TTITLE2=O Come All Ye Faithful
TTITLE3=Go Tell It On The Mountain
TTITLE4=I'll Be Home For Christmas
TTITLE5=Rudolph The Red-Nosed Reindeer 
TTITLE6=Winter Wonderland
TTITLE7=Please Come Home For Christmas
TTITLE8=Frosty The Snowman
TTITLE9=White Christmas
TTITLE10=Feliz Navidad
EXTD=
EXTT0=
EXTT1=
EXTT2=
EXTT3=
EXTT4=
EXTT5=
EXTT6=
EXTT7=
EXTT8=
EXTT9=
EXTT10=
PLAYORDER=
